<?xml version="1.0" encoding="utf-8"?>
<!-- Generator: Adobe Illustrator 18.0.0, SVG Export Plug-In . SVG Version: 6.00 Build 0)  -->
<!DOCTYPE svg PUBLIC "-//W3C//DTD SVG 1.1//EN" "http://www.w3.org/Graphics/SVG/1.1/DTD/svg11.dtd">
<svg version="1.1" id="Layer_1" xmlns="http://www.w3.org/2000/svg" xmlns:xlink="http://www.w3.org/1999/xlink" x="0px" y="0px"
	 viewBox="0 0 146.2 45.3" enable-background="new 0 0 146.2 45.3" xml:space="preserve">
<g>
	<g>
		<g>
			<path fill="#010101" d="M43.5,22.7C46,7.9,47.5,3.3,50,3.3c0.9,0,1.6,1,1.6,2.3c0,1.7-0.8,4.8-1.8,7.4
				C48.4,16.5,46.5,19.5,43.5,22.7 M42.9,26.7c3.8-4,5.8-6.4,7.3-8.8c2.7-4.2,4.3-8.8,4.3-12.3c0-3.4-1.8-5.6-4.5-5.6
				c-5.6,0-9.6,8.4-13.1,27.2c-1.4,1.7-2.7,3.2-3.6,4c-0.8,0.8-1.1,1.3-1.1,1.8c0,0.6,0.5,1.4,0.9,1.4c0.5,0,2.1-1.4,3.4-2.8
				c-0.4,3.9-0.5,5.4-0.5,6.9c0,4.2,1.7,6.5,4.9,6.5c2,0,3.8-1.2,5.3-3.6c0.9-1.4,1.4-2.7,1.4-3.7c0-0.6-0.4-1.1-1-1.1
				c-0.6,0-0.9,0.3-1.4,1.2c-1.3,2.6-1.9,3.4-3,3.4c-0.8,0-1.1-0.5-1.1-1.6C41.1,37.9,42.1,30.9,42.9,26.7"/>
		</g>
		<g>
			<path fill="#010101" d="M102,44.3l0-13.6c0-5.9-0.2-7.5-1.3-9.3c-1.7-2.9-4.9-4.5-8.5-4.5c-3.4,0-6.2,1.4-8,3.9
				c-1.5,2-1.7,3.5-1.7,9.9l0,13.6h3.7l0-13.7c0-4.2,0.2-6.1,0.8-7.3c0.9-1.9,3.1-3.1,5.3-3.1c2.1,0,4,1.1,5.1,2.8
				c0.8,1.3,1,3,1,7.7l0,13.7H102z"/>
			<path fill="#010101" d="M102.1,44.4h-3.9v-0.1l0-13.7c0-4.6-0.2-6.3-1-7.6c-1-1.6-3-2.7-5-2.7c-2.2,0-4.3,1.2-5.2,3
				c-0.6,1.2-0.8,3-0.8,7.3l0,13.8h-3.9v-0.1l0-13.6c0-6.5,0.3-8,1.8-10c1.8-2.5,4.7-3.9,8.1-3.9c3.8,0,6.9,1.7,8.6,4.6
				c1.1,1.8,1.3,3.5,1.3,9.3L102.1,44.4z M98.4,44.2h3.5l0-13.5c0-5.8-0.2-7.5-1.3-9.2c-1.7-2.9-4.8-4.5-8.5-4.5
				c-3.3,0-6.2,1.4-8,3.8c-1.5,2-1.7,3.4-1.7,9.9l0,13.5H86l0-13.6c0-4.3,0.2-6.1,0.8-7.4c0.9-1.9,3.1-3.2,5.4-3.2
				c2.1,0,4.1,1.1,5.2,2.8c0.8,1.3,1,3,1,7.7L98.4,44.2z"/>
		</g>
		<g>
			<path fill="#010101" d="M117.9,44.3l0-13.6c0-5.9-0.2-7.5-1.3-9.3c-1.7-2.9-4.9-4.5-8.5-4.5c-3.4,0-6.2,1.4-8,3.9
				c-1.5,2-1.7,3.5-1.7,9.9l0,13.6h3.7l0-13.7c0-4.2,0.2-6.1,0.8-7.3c0.9-1.9,3.1-3.1,5.3-3.1c2.1,0,4,1.1,5.1,2.8
				c0.8,1.3,1,3,1,7.7l0,13.7H117.9z"/>
			<path fill="#010101" d="M118,44.4h-3.9v-0.1l0-13.7c0-4.6-0.2-6.3-1-7.6c-1-1.6-3-2.7-5-2.7c-2.2,0-4.3,1.2-5.2,3
				c-0.6,1.2-0.8,3-0.8,7.3l0,13.8h-3.9v-0.1l0-13.6c0-6.5,0.3-8,1.8-10c1.8-2.5,4.7-3.9,8.1-3.9c3.8,0,6.9,1.7,8.6,4.6
				c1.1,1.8,1.3,3.5,1.3,9.3L118,44.4z M114.3,44.2h3.5l0-13.5c0-5.8-0.2-7.5-1.3-9.2c-1.7-2.9-4.8-4.5-8.5-4.5
				c-3.3,0-6.2,1.4-8,3.8c-1.5,2-1.7,3.4-1.7,9.9l0,13.5h3.5l0-13.6c0-4.3,0.2-6.1,0.8-7.4c0.9-1.9,3.1-3.2,5.4-3.2
				c2.1,0,4.1,1.1,5.2,2.8c0.8,1.3,1,3,1,7.7L114.3,44.2z"/>
		</g>
	</g>
	<g>
		<rect x="125.8" y="40.4" fill="#010101" width="20.4" height="3.8"/>
	</g>
	<g>
		<path fill="#010101" d="M14.5,44c7.5,0,13.7-6.1,13.7-13.7c0-7.5-6.1-13.7-13.7-13.7C7,16.7,0.9,22.8,0.9,30.4
			C0.9,37.9,7,44,14.5,44"/>
	</g>
	<g>
		<path fill="#010101" d="M70.8,36.2c-1.2,2.8-3.2,4.1-5.9,4.1c-2.7,0-4.7-1.4-5.9-4.1h-4.5c1.3,5.4,5.1,8.5,10.4,8.5
			c5.3,0,9.1-3.2,10.4-8.5H70.8z"/>
	</g>
	<g>
		<rect x="0.5" y="3.2" fill="#010101" width="4.6" height="40.8"/>
	</g>
	<g>
		<rect x="125.8" y="29.2" fill="#010101" width="20.4" height="3.8"/>
	</g>
	<g>
		<rect x="125.8" y="17.9" fill="#010101" width="20.4" height="3.8"/>
	</g>
</g>
</svg>
