<?xml version="1.0" encoding="utf-8"?>
<!-- Generator: Adobe Illustrator 18.1.1, SVG Export Plug-In . SVG Version: 6.00 Build 0)  -->
<svg version="1.1" id="Layer_1" xmlns="http://www.w3.org/2000/svg" xmlns:xlink="http://www.w3.org/1999/xlink" x="0px" y="0px"
	 viewBox="0 0 93.8 170.8" enable-background="new 0 0 93.8 170.8" xml:space="preserve">
<g>
	<path d="M47.8,90.1c8.3-49.3,13.5-64.7,21.6-64.7c3.1,0,5.2,3.2,5.2,7.5c0,5.7-2.6,16.1-5.8,24.6C64,69.6,57.7,79.2,47.8,90.1
		 M45.8,103.2C58.3,90,65.2,81.8,70,74c8.9-13.8,14.2-29.4,14.2-40.9s-5.8-18.8-15.1-18.8c-18.7,0-32,28.2-43.6,90.6
		c-4.6,5.7-9,10.6-12.1,13.5c-2.8,2.8-3.7,4.3-3.7,6.1c0,2.1,1.7,4.6,3.1,4.6c1.5,0,6.9-4.6,11.2-9.3c-1.2,13-1.5,17.9-1.5,22.9
		c0,14.1,5.7,21.6,16.2,21.6c6.7,0,12.7-4.1,17.7-12.1c3.1-4.7,4.7-9,4.7-12.4c0-2.1-1.2-3.7-3.2-3.7s-3.1,1.1-4.6,4.1
		c-4.3,8.7-6.4,11.3-9.9,11.3c-2.6,0-3.7-1.7-3.7-5.4C39.8,140.7,43,117.5,45.8,103.2"/>
</g>
</svg>
