<?xml version="1.0" encoding="utf-8"?>
<!-- Generator: Adobe Illustrator 18.1.1, SVG Export Plug-In . SVG Version: 6.00 Build 0)  -->
<svg version="1.1" id="Layer_1" xmlns="http://www.w3.org/2000/svg" xmlns:xlink="http://www.w3.org/1999/xlink" x="0px" y="0px"
	 viewBox="0 0 152.9 116.3" enable-background="new 0 0 152.9 116.3" xml:space="preserve">
<path d="M83.7,105.1V59.8c0-19.6-0.8-24.9-4.3-30.9c-5.7-9.6-16.2-15.1-28.5-15.1c-11.3,0-20.7,4.6-26.8,13
	c-4.9,6.6-5.8,11.6-5.8,33.2v45.3h12.2V59.7c0-13.9,0.6-20.2,2.8-24.3C36.4,29.1,43.6,25,51,25c6.9,0,13.5,3.7,17,9.2
	c2.6,4.3,3.4,9.9,3.4,25.6v45.6h12.2L83.7,105.1L83.7,105.1z"/>
<path d="M136.6,105.1V59.8c0-19.6-0.8-24.9-4.3-30.9c-5.7-9.6-16.2-15.1-28.5-15.1c-11.3,0-20.7,4.6-26.8,13
	c-4.9,6.6-5.8,11.6-5.8,33.2v45.3h12.2V59.7c0-13.9,0.6-20.2,2.8-24.3C89.3,29.1,96.5,25,103.9,25c6.9,0,13.5,3.7,17,9.2
	c2.6,4.3,3.4,9.9,3.4,25.6v45.6h12.2L136.6,105.1L136.6,105.1z"/>
</svg>
